{"glyphs":{"0":{"ha":932,"x_min":0,"x_max":850,"o":"m 155 1082 l 696 1082 l 696 1005 l 773 1005 l 773 928 l 850 928 l 850 155 l 773 155 l 773 77 l 696 77 l 696 0 l 155 0 l 155 77 l 77 77 l 77 155 l 0 155 l 0 928 l 77 928 l 77 1005 l 155 1005 l 155 1082 m 309 928 l 309 850 l 232 850 l 232 464 l 309 464 l 309 541 l 387 541 l 387 618 l 464 618 l 464 696 l 541 696 l 541 773 l 618 773 l 618 850 l 541 850 l 541 928 l 309 928 m 541 618 l 541 541 l 464 541 l 464 464 l 387 464 l 387 387 l 309 387 l 309 309 l 232 309 l 232 232 l 309 232 l 309 155 l 541 155 l 541 232 l 618 232 l 618 618 l 541 618 z "},"1":{"ha":509,"x_min":34,"x_max":420,"o":"m 189 1082 l 420 1082 l 420 0 l 189 0 l 189 850 l 34 850 l 34 928 l 111 928 l 111 1005 l 189 1005 l 189 1082 z "},"2":{"ha":932,"x_min":0,"x_max":850,"o":"m 77 1082 l 773 1082 l 773 1005 l 850 1005 l 850 541 l 773 541 l 773 464 l 309 464 l 309 387 l 232 387 l 232 155 l 850 155 l 850 0 l 0 0 l 0 464 l 77 464 l 77 541 l 155 541 l 155 618 l 618 618 l 618 928 l 232 928 l 232 850 l 0 850 l 0 1005 l 77 1005 l 77 1082 z "},"3":{"ha":932,"x_min":0,"x_max":773,"o":"m 0 1082 l 618 1082 l 618 1005 l 696 1005 l 696 928 l 773 928 l 773 618 l 696 618 l 696 464 l 773 464 l 773 155 l 696 155 l 696 77 l 618 77 l 618 0 l 0 0 l 0 155 l 464 155 l 464 232 l 541 232 l 541 464 l 0 464 l 0 618 l 541 618 l 541 850 l 464 850 l 464 928 l 0 928 l 0 1082 z "},"4":{"ha":932,"x_min":0,"x_max":773,"o":"m 0 1082 l 232 1082 l 232 618 l 541 618 l 541 1082 l 773 1082 l 773 0 l 541 0 l 541 464 l 0 464 l 0 1082 z "},"5":{"ha":932,"x_min":0,"x_max":850,"o":"m 0 1082 l 850 1082 l 850 928 l 232 928 l 232 618 l 773 618 l 773 541 l 850 541 l 850 77 l 773 77 l 773 0 l 77 0 l 77 77 l 0 77 l 0 232 l 232 232 l 232 155 l 618 155 l 618 464 l 0 464 l 0 1082 z "},"6":{"ha":932,"x_min":0,"x_max":850,"o":"m 155 1082 l 773 1082 l 773 1005 l 850 1005 l 850 850 l 618 850 l 618 928 l 309 928 l 309 850 l 232 850 l 232 618 l 696 618 l 696 541 l 773 541 l 773 464 l 850 464 l 850 155 l 773 155 l 773 77 l 696 77 l 696 0 l 155 0 l 155 77 l 77 77 l 77 155 l 0 155 l 0 928 l 77 928 l 77 1005 l 155 1005 l 155 1082 m 232 464 l 232 155 l 618 155 l 618 464 l 232 464 z "},"7":{"ha":932,"x_min":0,"x_max":850,"o":"m 0 1082 l 850 1082 l 850 850 l 773 850 l 773 773 l 696 773 l 696 696 l 618 696 l 618 618 l 541 618 l 541 0 l 309 0 l 309 618 l 387 618 l 387 696 l 464 696 l 464 773 l 541 773 l 541 850 l 618 850 l 618 928 l 0 928 l 0 1082 z "},"8":{"ha":932,"x_min":0,"x_max":850,"o":"m 155 1082 l 696 1082 l 696 1005 l 773 1005 l 773 928 l 850 928 l 850 618 l 773 618 l 773 464 l 850 464 l 850 155 l 773 155 l 773 77 l 696 77 l 696 0 l 155 0 l 155 77 l 77 77 l 77 155 l 0 155 l 0 464 l 77 464 l 77 618 l 0 618 l 0 928 l 77 928 l 77 1005 l 155 1005 l 155 1082 m 232 928 l 232 618 l 618 618 l 618 928 l 232 928 m 232 464 l 232 155 l 618 155 l 618 464 l 232 464 z "},"9":{"ha":932,"x_min":0,"x_max":850,"o":"m 155 1082 l 696 1082 l 696 1005 l 773 1005 l 773 928 l 850 928 l 850 155 l 773 155 l 773 77 l 696 77 l 696 0 l 77 0 l 77 77 l 0 77 l 0 232 l 232 232 l 232 155 l 541 155 l 541 232 l 618 232 l 618 464 l 155 464 l 155 541 l 77 541 l 77 618 l 0 618 l 0 928 l 77 928 l 77 1005 l 155 1005 l 155 1082 m 232 928 l 232 618 l 618 618 l 618 928 l 232 928 z "}," ":{"ha":345,"x_min":0,"x_max":0,"o":""},"!":{"ha":509,"x_min":68,"x_max":300,"o":"m 68 1082 l 300 1082 l 300 387 l 68 387 l 68 1082 m 68 232 l 300 232 l 300 0 l 68 0 l 68 232 z "},"\"":{"ha":814,"x_min":68,"x_max":609,"o":"m 68 1015 l 300 1015 l 300 861 l 222 861 l 222 783 l 68 783 l 68 1015 m 377 1015 l 609 1015 l 609 861 l 532 861 l 532 783 l 377 783 l 377 1015 z "},"#":{"ha":932,"x_min":0,"x_max":696,"o":"m 77 880 l 232 880 l 232 725 l 464 725 l 464 880 l 618 880 l 618 725 l 696 725 l 696 570 l 618 570 l 618 416 l 696 416 l 696 261 l 618 261 l 618 106 l 464 106 l 464 261 l 232 261 l 232 106 l 77 106 l 77 261 l 0 261 l 0 416 l 77 416 l 77 570 l 0 570 l 0 725 l 77 725 l 77 880 m 232 570 l 232 416 l 464 416 l 464 570 l 232 570 z "},"$":{"ha":932,"x_min":0,"x_max":838,"o":"m 296 1082 l 374 1082 l 374 1005 l 451 1005 l 451 1082 l 528 1082 l 528 1005 l 838 1005 l 838 850 l 528 850 l 528 618 l 683 618 l 683 541 l 760 541 l 760 464 l 838 464 l 838 232 l 760 232 l 760 155 l 683 155 l 683 77 l 528 77 l 528 0 l 451 0 l 451 77 l 374 77 l 374 0 l 296 0 l 296 77 l 0 77 l 0 232 l 296 232 l 296 464 l 142 464 l 142 541 l 64 541 l 64 618 l 0 618 l 0 850 l 64 850 l 64 928 l 142 928 l 142 1005 l 296 1005 l 296 1082 m 219 850 l 219 773 l 142 773 l 142 696 l 219 696 l 219 618 l 296 618 l 296 850 l 219 850 m 374 850 l 374 618 l 451 618 l 451 850 l 374 850 m 374 464 l 374 232 l 451 232 l 451 464 l 374 464 m 528 464 l 528 232 l 606 232 l 606 309 l 683 309 l 683 387 l 606 387 l 606 464 l 528 464 z "},"%":{"ha":932,"x_min":0,"x_max":696,"o":"m 464 928 l 618 928 l 618 773 l 541 773 l 541 618 l 464 618 l 464 464 l 387 464 l 387 309 l 309 309 l 309 155 l 232 155 l 232 0 l 77 0 l 77 155 l 155 155 l 155 309 l 232 309 l 232 464 l 309 464 l 309 618 l 387 618 l 387 773 l 464 773 l 464 928 m 77 850 l 232 850 l 232 773 l 77 773 l 77 850 m 0 773 l 77 773 l 77 618 l 0 618 l 0 773 m 232 773 l 309 773 l 309 618 l 232 618 l 232 773 m 77 618 l 232 618 l 232 541 l 77 541 l 77 618 m 464 387 l 618 387 l 618 309 l 464 309 l 464 387 m 387 309 l 464 309 l 464 155 l 387 155 l 387 309 m 618 309 l 696 309 l 696 155 l 618 155 l 618 309 m 464 155 l 618 155 l 618 77 l 464 77 l 464 155 z "},"&":{"ha":932,"x_min":0,"x_max":838,"o":"m 64 1082 l 374 1082 l 374 1005 l 451 1005 l 451 696 l 374 696 l 374 618 l 451 618 l 451 541 l 528 541 l 528 464 l 606 464 l 606 387 l 683 387 l 683 541 l 838 541 l 838 309 l 760 309 l 760 155 l 838 155 l 838 0 l 683 0 l 683 77 l 606 77 l 606 0 l 142 0 l 142 77 l 64 77 l 64 155 l 0 155 l 0 541 l 64 541 l 64 696 l 0 696 l 0 1005 l 64 1005 l 64 1082 m 142 928 l 142 773 l 296 773 l 296 928 l 142 928 m 142 541 l 142 232 l 219 232 l 219 155 l 528 155 l 528 309 l 451 309 l 451 387 l 374 387 l 374 464 l 296 464 l 296 541 l 142 541 z "},"'":{"ha":509,"x_min":68,"x_max":300,"o":"m 68 1015 l 300 1015 l 300 861 l 222 861 l 222 783 l 68 783 l 68 1015 z "},"(":{"ha":610,"x_min":0,"x_max":464,"o":"m 155 1082 l 464 1082 l 464 928 l 232 928 l 232 850 l 155 850 l 155 232 l 232 232 l 232 155 l 464 155 l 464 0 l 155 0 l 155 77 l 77 77 l 77 155 l 0 155 l 0 928 l 77 928 l 77 1005 l 155 1005 l 155 1082 z "},")":{"ha":610,"x_min":0,"x_max":464,"o":"m 0 1082 l 309 1082 l 309 1005 l 387 1005 l 387 928 l 464 928 l 464 155 l 387 155 l 387 77 l 309 77 l 309 0 l 0 0 l 0 155 l 232 155 l 232 232 l 309 232 l 309 850 l 232 850 l 232 928 l 0 928 l 0 1082 z "},"*":{"ha":694,"x_min":148,"x_max":534,"o":"m 302 745 l 380 745 l 380 590 l 534 590 l 534 513 l 457 513 l 457 358 l 225 358 l 225 513 l 148 513 l 148 590 l 302 590 l 302 745 m 148 358 l 225 358 l 225 281 l 148 281 l 148 358 m 457 358 l 534 358 l 534 281 l 457 281 l 457 358 z "},"+":{"ha":678,"x_min":68,"x_max":609,"o":"m 300 777 l 377 777 l 377 545 l 609 545 l 609 467 l 377 467 l 377 235 l 300 235 l 300 467 l 68 467 l 68 545 l 300 545 l 300 777 z "},",":{"ha":441,"x_min":68,"x_max":377,"o":"m 222 232 l 377 232 l 377 77 l 300 77 l 300 0 l 68 0 l 68 77 l 145 77 l 145 155 l 222 155 l 222 232 z "},"-":{"ha":814,"x_min":68,"x_max":609,"o":"m 68 546 l 609 546 l 609 469 l 68 469 l 68 546 z "},".":{"ha":407,"x_min":68,"x_max":300,"o":"m 68 232 l 300 232 l 300 0 l 68 0 l 68 232 z "},"/":{"ha":932,"x_min":68,"x_max":764,"o":"m 609 1082 l 764 1082 l 764 1005 l 686 1005 l 686 850 l 609 850 l 609 696 l 532 696 l 532 541 l 454 541 l 454 387 l 377 387 l 377 232 l 300 232 l 300 77 l 222 77 l 222 0 l 68 0 l 68 77 l 145 77 l 145 232 l 222 232 l 222 387 l 300 387 l 300 541 l 377 541 l 377 696 l 454 696 l 454 850 l 532 850 l 532 1005 l 609 1005 l 609 1082 z "},":":{"ha":509,"x_min":68,"x_max":300,"o":"m 68 884 l 300 884 l 300 652 l 68 652 l 68 884 m 68 497 l 300 497 l 300 265 l 68 265 l 68 497 z "},";":{"ha":509,"x_min":68,"x_max":300,"o":"m 68 883 l 300 883 l 300 651 l 68 651 l 68 883 m 68 496 l 300 496 l 300 264 l 145 264 l 145 342 l 68 342 l 68 496 z "},"<":{"ha":688,"x_min":59,"x_max":600,"o":"m 368 880 l 600 880 l 600 802 l 523 802 l 523 725 l 446 725 l 446 648 l 368 648 l 368 570 l 291 570 l 291 493 l 368 493 l 368 416 l 446 416 l 446 338 l 523 338 l 523 261 l 600 261 l 600 184 l 368 184 l 368 261 l 291 261 l 291 338 l 214 338 l 214 416 l 136 416 l 136 493 l 59 493 l 59 570 l 136 570 l 136 648 l 214 648 l 214 725 l 291 725 l 291 802 l 368 802 l 368 880 z "},"=":{"ha":688,"x_min":59,"x_max":600,"o":"m 59 812 l 600 812 l 600 658 l 59 658 l 59 812 m 59 503 l 600 503 l 600 349 l 59 349 l 59 503 z "},">":{"ha":688,"x_min":59,"x_max":600,"o":"m 59 882 l 291 882 l 291 804 l 368 804 l 368 727 l 446 727 l 446 650 l 523 650 l 523 572 l 600 572 l 600 495 l 523 495 l 523 418 l 446 418 l 446 340 l 368 340 l 368 263 l 291 263 l 291 186 l 59 186 l 59 263 l 136 263 l 136 340 l 214 340 l 214 418 l 291 418 l 291 495 l 368 495 l 368 572 l 291 572 l 291 650 l 214 650 l 214 727 l 136 727 l 136 804 l 59 804 l 59 882 z "},"?":{"ha":932,"x_min":10,"x_max":783,"o":"m 87 1082 l 706 1082 l 706 1005 l 783 1005 l 783 541 l 706 541 l 706 464 l 474 464 l 474 309 l 242 309 l 242 541 l 319 541 l 319 618 l 474 618 l 474 696 l 551 696 l 551 850 l 474 850 l 474 928 l 242 928 l 242 850 l 10 850 l 10 1005 l 87 1005 l 87 1082 m 242 232 l 474 232 l 474 0 l 242 0 l 242 232 z "},"@":{"ha":932,"x_min":0,"x_max":838,"o":"m 142 1082 l 683 1082 l 683 1005 l 760 1005 l 760 928 l 838 928 l 838 387 l 760 387 l 760 309 l 528 309 l 528 387 l 683 387 l 683 850 l 606 850 l 606 928 l 219 928 l 219 850 l 142 850 l 142 232 l 219 232 l 219 155 l 683 155 l 683 0 l 142 0 l 142 77 l 64 77 l 64 155 l 0 155 l 0 928 l 64 928 l 64 1005 l 142 1005 l 142 1082 m 296 696 l 528 696 l 528 387 l 296 387 l 296 464 l 451 464 l 451 618 l 296 618 l 296 696 m 219 618 l 296 618 l 296 464 l 219 464 l 219 618 z "},"A":{"ha":932,"x_min":0,"x_max":850,"o":"m 309 1082 l 541 1082 l 541 1005 l 618 1005 l 618 928 l 696 928 l 696 850 l 773 850 l 773 773 l 850 773 l 850 0 l 618 0 l 618 387 l 232 387 l 232 0 l 0 0 l 0 773 l 77 773 l 77 850 l 155 850 l 155 928 l 232 928 l 232 1005 l 309 1005 l 309 1082 m 309 850 l 309 773 l 232 773 l 232 541 l 618 541 l 618 773 l 541 773 l 541 850 l 309 850 z "},"B":{"ha":932,"x_min":0,"x_max":850,"o":"m 0 1082 l 696 1082 l 696 1005 l 773 1005 l 773 928 l 850 928 l 850 618 l 773 618 l 773 464 l 850 464 l 850 155 l 773 155 l 773 77 l 696 77 l 696 0 l 0 0 l 0 1082 m 232 928 l 232 618 l 618 618 l 618 928 l 232 928 m 232 464 l 232 155 l 618 155 l 618 464 l 232 464 z "},"C":{"ha":932,"x_min":0,"x_max":850,"o":"m 155 1082 l 773 1082 l 773 1005 l 850 1005 l 850 850 l 618 850 l 618 928 l 309 928 l 309 850 l 232 850 l 232 232 l 309 232 l 309 155 l 618 155 l 618 232 l 850 232 l 850 77 l 773 77 l 773 0 l 155 0 l 155 77 l 77 77 l 77 155 l 0 155 l 0 928 l 77 928 l 77 1005 l 155 1005 l 155 1082 z "},"D":{"ha":932,"x_min":0,"x_max":850,"o":"m 0 1082 l 696 1082 l 696 1005 l 773 1005 l 773 928 l 850 928 l 850 155 l 773 155 l 773 77 l 696 77 l 696 0 l 0 0 l 0 1082 m 232 928 l 232 155 l 618 155 l 618 928 l 232 928 z "},"E":{"ha":932,"x_min":0,"x_max":773,"o":"m 0 1082 l 773 1082 l 773 928 l 232 928 l 232 618 l 773 618 l 773 464 l 232 464 l 232 155 l 773 155 l 773 0 l 0 0 l 0 1082 z "},"F":{"ha":932,"x_min":0,"x_max":773,"o":"m 0 1082 l 773 1082 l 773 928 l 232 928 l 232 618 l 773 618 l 773 464 l 232 464 l 232 0 l 0 0 l 0 1082 z "},"G":{"ha":932,"x_min":0,"x_max":850,"o":"m 155 1082 l 773 1082 l 773 1005 l 850 1005 l 850 850 l 618 850 l 618 928 l 309 928 l 309 850 l 232 850 l 232 232 l 309 232 l 309 155 l 541 155 l 541 232 l 618 232 l 618 464 l 387 464 l 387 618 l 850 618 l 850 77 l 773 77 l 773 0 l 155 0 l 155 77 l 77 77 l 77 155 l 0 155 l 0 928 l 77 928 l 77 1005 l 155 1005 l 155 1082 z "},"H":{"ha":932,"x_min":0,"x_max":773,"o":"m 0 1082 l 232 1082 l 232 618 l 541 618 l 541 1082 l 773 1082 l 773 0 l 541 0 l 541 464 l 232 464 l 232 0 l 0 0 l 0 1082 z "},"I":{"ha":509,"x_min":68,"x_max":300,"o":"m 68 1082 l 300 1082 l 300 0 l 68 0 l 68 1082 z "},"J":{"ha":932,"x_min":0,"x_max":850,"o":"m 618 1082 l 850 1082 l 850 77 l 773 77 l 773 0 l 155 0 l 155 77 l 77 77 l 77 155 l 0 155 l 0 309 l 232 309 l 232 232 l 309 232 l 309 155 l 541 155 l 541 232 l 618 232 l 618 1082 z "},"K":{"ha":932,"x_min":0,"x_max":773,"o":"m 0 1082 l 232 1082 l 232 696 l 387 696 l 387 773 l 464 773 l 464 850 l 541 850 l 541 1082 l 773 1082 l 773 850 l 696 850 l 696 773 l 618 773 l 618 696 l 541 696 l 541 618 l 464 618 l 464 541 l 541 541 l 541 464 l 618 464 l 618 387 l 696 387 l 696 309 l 773 309 l 773 0 l 541 0 l 541 232 l 464 232 l 464 309 l 387 309 l 387 387 l 232 387 l 232 0 l 0 0 l 0 1082 z "},"L":{"ha":932,"x_min":0,"x_max":850,"o":"m 0 1082 l 232 1082 l 232 155 l 850 155 l 850 0 l 0 0 l 0 1082 z "},"M":{"ha":932,"x_min":0,"x_max":850,"o":"m 0 1082 l 155 1082 l 155 1005 l 232 1005 l 232 928 l 309 928 l 309 850 l 387 850 l 387 773 l 464 773 l 464 850 l 541 850 l 541 928 l 618 928 l 618 1005 l 696 1005 l 696 1082 l 850 1082 l 850 0 l 618 0 l 618 696 l 541 696 l 541 618 l 464 618 l 464 541 l 387 541 l 387 618 l 309 618 l 309 696 l 232 696 l 232 0 l 0 0 l 0 1082 z "},"N":{"ha":932,"x_min":0,"x_max":850,"o":"m 0 1082 l 232 1082 l 232 850 l 309 850 l 309 773 l 387 773 l 387 696 l 464 696 l 464 618 l 541 618 l 541 541 l 618 541 l 618 1082 l 850 1082 l 850 0 l 618 0 l 618 232 l 541 232 l 541 309 l 464 309 l 464 387 l 387 387 l 387 464 l 309 464 l 309 541 l 232 541 l 232 0 l 0 0 l 0 1082 z "},"O":{"ha":932,"x_min":0,"x_max":850,"o":"m 155 1082 l 696 1082 l 696 1005 l 773 1005 l 773 928 l 850 928 l 850 155 l 773 155 l 773 77 l 696 77 l 696 0 l 155 0 l 155 77 l 77 77 l 77 155 l 0 155 l 0 928 l 77 928 l 77 1005 l 155 1005 l 155 1082 m 309 928 l 309 850 l 232 850 l 232 232 l 309 232 l 309 155 l 541 155 l 541 232 l 618 232 l 618 850 l 541 850 l 541 928 l 309 928 z "},"P":{"ha":932,"x_min":0,"x_max":850,"o":"m 0 1082 l 696 1082 l 696 1005 l 773 1005 l 773 928 l 850 928 l 850 618 l 773 618 l 773 541 l 696 541 l 696 464 l 232 464 l 232 0 l 0 0 l 0 1082 m 232 928 l 232 618 l 618 618 l 618 928 l 232 928 z "},"Q":{"ha":932,"x_min":0,"x_max":850,"o":"m 155 1082 l 696 1082 l 696 1005 l 773 1005 l 773 928 l 850 928 l 850 232 l 773 232 l 773 155 l 850 155 l 850 0 l 696 0 l 696 77 l 618 77 l 618 0 l 155 0 l 155 77 l 77 77 l 77 155 l 0 155 l 0 928 l 77 928 l 77 1005 l 155 1005 l 155 1082 m 309 928 l 309 850 l 232 850 l 232 232 l 309 232 l 309 155 l 464 155 l 464 232 l 387 232 l 387 309 l 309 309 l 309 387 l 541 387 l 541 309 l 618 309 l 618 850 l 541 850 l 541 928 l 309 928 z "},"R":{"ha":932,"x_min":0,"x_max":850,"o":"m 0 1082 l 696 1082 l 696 1005 l 773 1005 l 773 928 l 850 928 l 850 618 l 773 618 l 773 541 l 696 541 l 696 464 l 541 464 l 541 309 l 618 309 l 618 232 l 696 232 l 696 155 l 773 155 l 773 77 l 850 77 l 850 0 l 541 0 l 541 77 l 464 77 l 464 155 l 387 155 l 387 232 l 309 232 l 309 309 l 232 309 l 232 0 l 0 0 l 0 1082 m 232 928 l 232 618 l 618 618 l 618 928 l 232 928 z "},"S":{"ha":932,"x_min":0,"x_max":850,"o":"m 155 1082 l 773 1082 l 773 1005 l 850 1005 l 850 850 l 541 850 l 541 928 l 309 928 l 309 850 l 232 850 l 232 696 l 309 696 l 309 618 l 696 618 l 696 541 l 773 541 l 773 464 l 850 464 l 850 155 l 773 155 l 773 77 l 696 77 l 696 0 l 77 0 l 77 77 l 0 77 l 0 232 l 232 232 l 232 155 l 541 155 l 541 232 l 618 232 l 618 387 l 541 387 l 541 464 l 155 464 l 155 541 l 77 541 l 77 618 l 0 618 l 0 928 l 77 928 l 77 1005 l 155 1005 l 155 1082 z "},"T":{"ha":932,"x_min":0,"x_max":850,"o":"m 0 1082 l 850 1082 l 850 928 l 541 928 l 541 0 l 309 0 l 309 928 l 0 928 l 0 1082 z "},"U":{"ha":932,"x_min":0,"x_max":850,"o":"m 0 1082 l 232 1082 l 232 232 l 309 232 l 309 155 l 541 155 l 541 232 l 618 232 l 618 1082 l 850 1082 l 850 155 l 773 155 l 773 77 l 696 77 l 696 0 l 155 0 l 155 77 l 77 77 l 77 155 l 0 155 l 0 1082 z "},"V":{"ha":932,"x_min":0,"x_max":850,"o":"m 0 1082 l 232 1082 l 232 464 l 309 464 l 309 387 l 387 387 l 387 309 l 464 309 l 464 387 l 541 387 l 541 464 l 618 464 l 618 1082 l 850 1082 l 850 387 l 773 387 l 773 309 l 696 309 l 696 232 l 618 232 l 618 155 l 541 155 l 541 77 l 464 77 l 464 0 l 387 0 l 387 77 l 309 77 l 309 155 l 232 155 l 232 232 l 155 232 l 155 309 l 77 309 l 77 387 l 0 387 l 0 1082 z "},"W":{"ha":932,"x_min":0,"x_max":850,"o":"m 0 1082 l 232 1082 l 232 387 l 309 387 l 309 464 l 387 464 l 387 541 l 464 541 l 464 464 l 541 464 l 541 387 l 618 387 l 618 1082 l 850 1082 l 850 0 l 696 0 l 696 77 l 618 77 l 618 155 l 541 155 l 541 232 l 464 232 l 464 309 l 387 309 l 387 232 l 309 232 l 309 155 l 232 155 l 232 77 l 155 77 l 155 0 l 0 0 l 0 1082 z "},"X":{"ha":932,"x_min":0,"x_max":850,"o":"m 0 1082 l 232 1082 l 232 850 l 309 850 l 309 773 l 387 773 l 387 696 l 464 696 l 464 773 l 541 773 l 541 850 l 618 850 l 618 1082 l 850 1082 l 850 850 l 773 850 l 773 773 l 696 773 l 696 696 l 618 696 l 618 618 l 541 618 l 541 464 l 618 464 l 618 387 l 696 387 l 696 309 l 773 309 l 773 232 l 850 232 l 850 0 l 618 0 l 618 232 l 541 232 l 541 309 l 464 309 l 464 387 l 387 387 l 387 309 l 309 309 l 309 232 l 232 232 l 232 0 l 0 0 l 0 232 l 77 232 l 77 309 l 155 309 l 155 387 l 232 387 l 232 464 l 309 464 l 309 618 l 232 618 l 232 696 l 155 696 l 155 773 l 77 773 l 77 850 l 0 850 l 0 1082 z "},"Y":{"ha":932,"x_min":0,"x_max":850,"o":"m 0 1082 l 155 1082 l 155 1005 l 232 1005 l 232 928 l 309 928 l 309 850 l 387 850 l 387 773 l 464 773 l 464 850 l 541 850 l 541 928 l 618 928 l 618 1005 l 696 1005 l 696 1082 l 850 1082 l 850 850 l 773 850 l 773 773 l 696 773 l 696 696 l 618 696 l 618 618 l 541 618 l 541 0 l 309 0 l 309 618 l 232 618 l 232 696 l 155 696 l 155 773 l 77 773 l 77 850 l 0 850 l 0 1082 z "},"Z":{"ha":932,"x_min":0,"x_max":850,"o":"m 0 1082 l 850 1082 l 850 773 l 773 773 l 773 696 l 696 696 l 696 618 l 618 618 l 618 541 l 541 541 l 541 464 l 464 464 l 464 387 l 387 387 l 387 309 l 309 309 l 309 232 l 232 232 l 232 155 l 850 155 l 850 0 l 0 0 l 0 309 l 77 309 l 77 387 l 155 387 l 155 464 l 232 464 l 232 541 l 309 541 l 309 618 l 387 618 l 387 696 l 464 696 l 464 773 l 541 773 l 541 850 l 618 850 l 618 928 l 0 928 l 0 1082 z "},"[":{"ha":610,"x_min":0,"x_max":464,"o":"m 0 1082 l 464 1082 l 464 928 l 155 928 l 155 155 l 464 155 l 464 0 l 0 0 l 0 1082 z "},"\\":{"ha":932,"x_min":68,"x_max":764,"o":"m 68 1082 l 222 1082 l 222 1005 l 300 1005 l 300 850 l 377 850 l 377 696 l 454 696 l 454 541 l 532 541 l 532 387 l 609 387 l 609 232 l 686 232 l 686 77 l 764 77 l 764 0 l 609 0 l 609 77 l 532 77 l 532 232 l 454 232 l 454 387 l 377 387 l 377 541 l 300 541 l 300 696 l 222 696 l 222 850 l 145 850 l 145 1005 l 68 1005 l 68 1082 z "},"]":{"ha":610,"x_min":0,"x_max":464,"o":"m 0 1082 l 464 1082 l 464 0 l 0 0 l 0 155 l 309 155 l 309 928 l 0 928 l 0 1082 z "},"^":{"ha":509,"x_min":68,"x_max":454,"o":"m 222 1016 l 300 1016 l 300 939 l 377 939 l 377 861 l 454 861 l 454 707 l 377 707 l 377 784 l 300 784 l 300 861 l 222 861 l 222 784 l 145 784 l 145 707 l 68 707 l 68 861 l 145 861 l 145 939 l 222 939 l 222 1016 z "},"_":{"ha":694,"x_min":0,"x_max":541,"o":"m 0 77 l 541 77 l 541 0 l 0 0 l 0 77 z "},"`":{"ha":694,"x_min":0,"x_max":0,"o":""},"a":{"ha":932,"x_min":0,"x_max":850,"o":"m 309 1082 l 541 1082 l 541 1005 l 618 1005 l 618 928 l 696 928 l 696 850 l 773 850 l 773 773 l 850 773 l 850 0 l 618 0 l 618 387 l 232 387 l 232 0 l 0 0 l 0 773 l 77 773 l 77 850 l 155 850 l 155 928 l 232 928 l 232 1005 l 309 1005 l 309 1082 m 309 850 l 309 773 l 232 773 l 232 541 l 618 541 l 618 773 l 541 773 l 541 850 l 309 850 z "},"b":{"ha":932,"x_min":0,"x_max":850,"o":"m 0 1082 l 696 1082 l 696 1005 l 773 1005 l 773 928 l 850 928 l 850 618 l 773 618 l 773 464 l 850 464 l 850 155 l 773 155 l 773 77 l 696 77 l 696 0 l 0 0 l 0 1082 m 232 928 l 232 618 l 618 618 l 618 928 l 232 928 m 232 464 l 232 155 l 618 155 l 618 464 l 232 464 z "},"c":{"ha":932,"x_min":0,"x_max":850,"o":"m 155 1082 l 773 1082 l 773 1005 l 850 1005 l 850 850 l 618 850 l 618 928 l 309 928 l 309 850 l 232 850 l 232 232 l 309 232 l 309 155 l 618 155 l 618 232 l 850 232 l 850 77 l 773 77 l 773 0 l 155 0 l 155 77 l 77 77 l 77 155 l 0 155 l 0 928 l 77 928 l 77 1005 l 155 1005 l 155 1082 z "},"d":{"ha":932,"x_min":0,"x_max":850,"o":"m 0 1082 l 696 1082 l 696 1005 l 773 1005 l 773 928 l 850 928 l 850 155 l 773 155 l 773 77 l 696 77 l 696 0 l 0 0 l 0 1082 m 232 928 l 232 155 l 618 155 l 618 928 l 232 928 z "},"e":{"ha":932,"x_min":0,"x_max":773,"o":"m 0 1082 l 773 1082 l 773 928 l 232 928 l 232 618 l 773 618 l 773 464 l 232 464 l 232 155 l 773 155 l 773 0 l 0 0 l 0 1082 z "},"f":{"ha":932,"x_min":0,"x_max":773,"o":"m 0 1082 l 773 1082 l 773 928 l 232 928 l 232 618 l 773 618 l 773 464 l 232 464 l 232 0 l 0 0 l 0 1082 z "},"g":{"ha":932,"x_min":0,"x_max":850,"o":"m 155 1082 l 773 1082 l 773 1005 l 850 1005 l 850 850 l 618 850 l 618 928 l 309 928 l 309 850 l 232 850 l 232 232 l 309 232 l 309 155 l 541 155 l 541 232 l 618 232 l 618 464 l 387 464 l 387 618 l 850 618 l 850 77 l 773 77 l 773 0 l 155 0 l 155 77 l 77 77 l 77 155 l 0 155 l 0 928 l 77 928 l 77 1005 l 155 1005 l 155 1082 z "},"h":{"ha":932,"x_min":0,"x_max":773,"o":"m 0 1082 l 232 1082 l 232 618 l 541 618 l 541 1082 l 773 1082 l 773 0 l 541 0 l 541 464 l 232 464 l 232 0 l 0 0 l 0 1082 z "},"i":{"ha":509,"x_min":68,"x_max":300,"o":"m 68 1082 l 300 1082 l 300 0 l 68 0 l 68 1082 z "},"j":{"ha":932,"x_min":0,"x_max":850,"o":"m 618 1082 l 850 1082 l 850 77 l 773 77 l 773 0 l 155 0 l 155 77 l 77 77 l 77 155 l 0 155 l 0 309 l 232 309 l 232 232 l 309 232 l 309 155 l 541 155 l 541 232 l 618 232 l 618 1082 z "},"k":{"ha":932,"x_min":0,"x_max":773,"o":"m 0 1082 l 232 1082 l 232 696 l 387 696 l 387 773 l 464 773 l 464 850 l 541 850 l 541 1082 l 773 1082 l 773 850 l 696 850 l 696 773 l 618 773 l 618 696 l 541 696 l 541 618 l 464 618 l 464 541 l 541 541 l 541 464 l 618 464 l 618 387 l 696 387 l 696 309 l 773 309 l 773 0 l 541 0 l 541 232 l 464 232 l 464 309 l 387 309 l 387 387 l 232 387 l 232 0 l 0 0 l 0 1082 z "},"l":{"ha":932,"x_min":0,"x_max":850,"o":"m 0 1082 l 232 1082 l 232 155 l 850 155 l 850 0 l 0 0 l 0 1082 z "},"m":{"ha":932,"x_min":0,"x_max":850,"o":"m 0 1082 l 155 1082 l 155 1005 l 232 1005 l 232 928 l 309 928 l 309 850 l 387 850 l 387 773 l 464 773 l 464 850 l 541 850 l 541 928 l 618 928 l 618 1005 l 696 1005 l 696 1082 l 850 1082 l 850 0 l 618 0 l 618 696 l 541 696 l 541 618 l 464 618 l 464 541 l 387 541 l 387 618 l 309 618 l 309 696 l 232 696 l 232 0 l 0 0 l 0 1082 z "},"n":{"ha":932,"x_min":0,"x_max":850,"o":"m 0 1082 l 232 1082 l 232 850 l 309 850 l 309 773 l 387 773 l 387 696 l 464 696 l 464 618 l 541 618 l 541 541 l 618 541 l 618 1082 l 850 1082 l 850 0 l 618 0 l 618 232 l 541 232 l 541 309 l 464 309 l 464 387 l 387 387 l 387 464 l 309 464 l 309 541 l 232 541 l 232 0 l 0 0 l 0 1082 z "},"o":{"ha":932,"x_min":0,"x_max":850,"o":"m 155 1082 l 696 1082 l 696 1005 l 773 1005 l 773 928 l 850 928 l 850 155 l 773 155 l 773 77 l 696 77 l 696 0 l 155 0 l 155 77 l 77 77 l 77 155 l 0 155 l 0 928 l 77 928 l 77 1005 l 155 1005 l 155 1082 m 309 928 l 309 850 l 232 850 l 232 232 l 309 232 l 309 155 l 541 155 l 541 232 l 618 232 l 618 850 l 541 850 l 541 928 l 309 928 z "},"p":{"ha":932,"x_min":0,"x_max":850,"o":"m 0 1082 l 696 1082 l 696 1005 l 773 1005 l 773 928 l 850 928 l 850 618 l 773 618 l 773 541 l 696 541 l 696 464 l 232 464 l 232 0 l 0 0 l 0 1082 m 232 928 l 232 618 l 618 618 l 618 928 l 232 928 z "},"q":{"ha":932,"x_min":0,"x_max":850,"o":"m 155 1082 l 696 1082 l 696 1005 l 773 1005 l 773 928 l 850 928 l 850 232 l 773 232 l 773 155 l 850 155 l 850 0 l 696 0 l 696 77 l 618 77 l 618 0 l 155 0 l 155 77 l 77 77 l 77 155 l 0 155 l 0 928 l 77 928 l 77 1005 l 155 1005 l 155 1082 m 309 928 l 309 850 l 232 850 l 232 232 l 309 232 l 309 155 l 464 155 l 464 232 l 387 232 l 387 309 l 309 309 l 309 387 l 541 387 l 541 309 l 618 309 l 618 850 l 541 850 l 541 928 l 309 928 z "},"r":{"ha":932,"x_min":0,"x_max":850,"o":"m 0 1082 l 696 1082 l 696 1005 l 773 1005 l 773 928 l 850 928 l 850 618 l 773 618 l 773 541 l 696 541 l 696 464 l 541 464 l 541 309 l 618 309 l 618 232 l 696 232 l 696 155 l 773 155 l 773 77 l 850 77 l 850 0 l 541 0 l 541 77 l 464 77 l 464 155 l 387 155 l 387 232 l 309 232 l 309 309 l 232 309 l 232 0 l 0 0 l 0 1082 m 232 928 l 232 618 l 618 618 l 618 928 l 232 928 z "},"s":{"ha":932,"x_min":0,"x_max":850,"o":"m 155 1082 l 773 1082 l 773 1005 l 850 1005 l 850 850 l 541 850 l 541 928 l 309 928 l 309 850 l 232 850 l 232 696 l 309 696 l 309 618 l 696 618 l 696 541 l 773 541 l 773 464 l 850 464 l 850 155 l 773 155 l 773 77 l 696 77 l 696 0 l 77 0 l 77 77 l 0 77 l 0 232 l 232 232 l 232 155 l 541 155 l 541 232 l 618 232 l 618 387 l 541 387 l 541 464 l 155 464 l 155 541 l 77 541 l 77 618 l 0 618 l 0 928 l 77 928 l 77 1005 l 155 1005 l 155 1082 z "},"t":{"ha":932,"x_min":0,"x_max":850,"o":"m 0 1082 l 850 1082 l 850 928 l 541 928 l 541 0 l 309 0 l 309 928 l 0 928 l 0 1082 z "},"u":{"ha":932,"x_min":0,"x_max":850,"o":"m 0 1082 l 232 1082 l 232 232 l 309 232 l 309 155 l 541 155 l 541 232 l 618 232 l 618 1082 l 850 1082 l 850 155 l 773 155 l 773 77 l 696 77 l 696 0 l 155 0 l 155 77 l 77 77 l 77 155 l 0 155 l 0 1082 z "},"v":{"ha":932,"x_min":0,"x_max":850,"o":"m 0 1082 l 232 1082 l 232 464 l 309 464 l 309 387 l 387 387 l 387 309 l 464 309 l 464 387 l 541 387 l 541 464 l 618 464 l 618 1082 l 850 1082 l 850 387 l 773 387 l 773 309 l 696 309 l 696 232 l 618 232 l 618 155 l 541 155 l 541 77 l 464 77 l 464 0 l 387 0 l 387 77 l 309 77 l 309 155 l 232 155 l 232 232 l 155 232 l 155 309 l 77 309 l 77 387 l 0 387 l 0 1082 z "},"w":{"ha":932,"x_min":0,"x_max":850,"o":"m 0 1082 l 232 1082 l 232 387 l 309 387 l 309 464 l 387 464 l 387 541 l 464 541 l 464 464 l 541 464 l 541 387 l 618 387 l 618 1082 l 850 1082 l 850 0 l 696 0 l 696 77 l 618 77 l 618 155 l 541 155 l 541 232 l 464 232 l 464 309 l 387 309 l 387 232 l 309 232 l 309 155 l 232 155 l 232 77 l 155 77 l 155 0 l 0 0 l 0 1082 z "},"x":{"ha":932,"x_min":0,"x_max":850,"o":"m 0 1082 l 232 1082 l 232 850 l 309 850 l 309 773 l 387 773 l 387 696 l 464 696 l 464 773 l 541 773 l 541 850 l 618 850 l 618 1082 l 850 1082 l 850 850 l 773 850 l 773 773 l 696 773 l 696 696 l 618 696 l 618 618 l 541 618 l 541 464 l 618 464 l 618 387 l 696 387 l 696 309 l 773 309 l 773 232 l 850 232 l 850 0 l 618 0 l 618 232 l 541 232 l 541 309 l 464 309 l 464 387 l 387 387 l 387 309 l 309 309 l 309 232 l 232 232 l 232 0 l 0 0 l 0 232 l 77 232 l 77 309 l 155 309 l 155 387 l 232 387 l 232 464 l 309 464 l 309 618 l 232 618 l 232 696 l 155 696 l 155 773 l 77 773 l 77 850 l 0 850 l 0 1082 z "},"y":{"ha":932,"x_min":0,"x_max":850,"o":"m 0 1082 l 155 1082 l 155 1005 l 232 1005 l 232 928 l 309 928 l 309 850 l 387 850 l 387 773 l 464 773 l 464 850 l 541 850 l 541 928 l 618 928 l 618 1005 l 696 1005 l 696 1082 l 850 1082 l 850 850 l 773 850 l 773 773 l 696 773 l 696 696 l 618 696 l 618 618 l 541 618 l 541 0 l 309 0 l 309 618 l 232 618 l 232 696 l 155 696 l 155 773 l 77 773 l 77 850 l 0 850 l 0 1082 z "},"z":{"ha":932,"x_min":0,"x_max":850,"o":"m 0 1082 l 850 1082 l 850 773 l 773 773 l 773 696 l 696 696 l 696 618 l 618 618 l 618 541 l 541 541 l 541 464 l 464 464 l 464 387 l 387 387 l 387 309 l 309 309 l 309 232 l 232 232 l 232 155 l 850 155 l 850 0 l 0 0 l 0 309 l 77 309 l 77 387 l 155 387 l 155 464 l 232 464 l 232 541 l 309 541 l 309 618 l 387 618 l 387 696 l 464 696 l 464 773 l 541 773 l 541 850 l 618 850 l 618 928 l 0 928 l 0 1082 z "},"{":{"ha":610,"x_min":0,"x_max":618,"o":"m 309 1082 l 618 1082 l 618 928 l 387 928 l 387 850 l 309 850 l 309 618 l 232 618 l 232 464 l 309 464 l 309 232 l 387 232 l 387 155 l 618 155 l 618 0 l 309 0 l 309 77 l 232 77 l 232 155 l 155 155 l 155 387 l 77 387 l 77 464 l 0 464 l 0 618 l 77 618 l 77 696 l 155 696 l 155 928 l 232 928 l 232 1005 l 309 1005 l 309 1082 z "},"|":{"ha":509,"x_min":119,"x_max":351,"o":"m 119 1082 l 351 1082 l 351 0 l 119 0 l 119 1082 z "},"}":{"ha":610,"x_min":0,"x_max":618,"o":"m 0 1082 l 309 1082 l 309 1005 l 387 1005 l 387 928 l 464 928 l 464 696 l 541 696 l 541 618 l 618 618 l 618 464 l 541 464 l 541 387 l 464 387 l 464 155 l 387 155 l 387 77 l 309 77 l 309 0 l 0 0 l 0 155 l 232 155 l 232 232 l 309 232 l 309 464 l 387 464 l 387 618 l 309 618 l 309 850 l 232 850 l 232 928 l 0 928 l 0 1082 z "},"~":{"ha":814,"x_min":136,"x_max":677,"o":"m 445 687 l 600 687 l 600 610 l 677 610 l 677 455 l 600 455 l 600 532 l 445 532 l 445 455 l 368 455 l 368 378 l 213 378 l 213 455 l 136 455 l 136 610 l 213 610 l 213 532 l 368 532 l 368 610 l 445 610 l 445 687 z "},"¡":{"ha":456,"x_min":0,"x_max":0,"o":""},"¢":{"ha":772,"x_min":0,"x_max":0,"o":""},"£":{"ha":688,"x_min":0,"x_max":0,"o":""},"¤":{"ha":688,"x_min":0,"x_max":0,"o":""},"¥":{"ha":856,"x_min":0,"x_max":0,"o":""},"¦":{"ha":688,"x_min":0,"x_max":0,"o":""},"§":{"ha":688,"x_min":0,"x_max":0,"o":""},"¨":{"ha":694,"x_min":0,"x_max":0,"o":""},"©":{"ha":1135,"x_min":0,"x_max":0,"o":""},"ª":{"ha":439,"x_min":0,"x_max":0,"o":""},"«":{"ha":640,"x_min":0,"x_max":0,"o":""},"¬":{"ha":688,"x_min":0,"x_max":0,"o":""},"®":{"ha":1135,"x_min":0,"x_max":0,"o":""},"¯":{"ha":454,"x_min":0,"x_max":0,"o":""},"°":{"ha":457,"x_min":0,"x_max":0,"o":""},"±":{"ha":688,"x_min":0,"x_max":0,"o":""},"²":{"ha":688,"x_min":0,"x_max":0,"o":""},"³":{"ha":688,"x_min":0,"x_max":0,"o":""},"´":{"ha":694,"x_min":0,"x_max":0,"o":""},"µ":{"ha":800,"x_min":0,"x_max":0,"o":""},"¶":{"ha":694,"x_min":0,"x_max":0,"o":""},"·":{"ha":345,"x_min":0,"x_max":0,"o":""},"¸":{"ha":694,"x_min":0,"x_max":0,"o":""},"¹":{"ha":688,"x_min":0,"x_max":0,"o":""},"º":{"ha":487,"x_min":0,"x_max":0,"o":""},"»":{"ha":640,"x_min":0,"x_max":0,"o":""},"¼":{"ha":1158,"x_min":0,"x_max":0,"o":""},"½":{"ha":1332,"x_min":0,"x_max":0,"o":""},"¾":{"ha":1158,"x_min":0,"x_max":0,"o":""},"¿":{"ha":507,"x_min":0,"x_max":0,"o":""},"À":{"ha":882,"x_min":102,"x_max":720,"o":"m 102 696 l 256 696 l 256 0 l 102 0 l 102 696 m 643 696 l 720 696 l 720 0 l 643 0 l 643 77 l 566 77 l 566 155 l 488 155 l 488 232 l 411 232 l 411 309 l 334 309 l 334 387 l 411 387 l 411 464 l 488 464 l 488 541 l 566 541 l 566 618 l 643 618 l 643 696 z "},"Á":{"ha":882,"x_min":51,"x_max":824,"o":"m 360 696 l 437 696 l 437 387 l 515 387 l 515 464 l 592 464 l 592 541 l 669 541 l 669 618 l 747 618 l 747 696 l 824 696 l 824 0 l 747 0 l 747 77 l 669 77 l 669 155 l 592 155 l 592 232 l 515 232 l 515 309 l 437 309 l 437 0 l 360 0 l 360 77 l 283 77 l 283 155 l 205 155 l 205 232 l 128 232 l 128 309 l 51 309 l 51 387 l 128 387 l 128 464 l 205 464 l 205 541 l 283 541 l 283 618 l 360 618 l 360 696 z "},"Â":{"ha":610,"x_min":68,"x_max":454,"o":"m 68 696 l 145 696 l 145 618 l 222 618 l 222 541 l 300 541 l 300 464 l 377 464 l 377 387 l 454 387 l 454 309 l 377 309 l 377 232 l 300 232 l 300 155 l 222 155 l 222 77 l 145 77 l 145 0 l 68 0 l 68 696 z "},"Ã":{"ha":746,"x_min":102,"x_max":566,"o":"m 102 696 l 256 696 l 256 0 l 102 0 l 102 696 m 411 696 l 566 696 l 566 0 l 411 0 l 411 696 z "},"Ä":{"ha":882,"x_min":102,"x_max":720,"o":"m 102 696 l 720 696 l 720 0 l 102 0 l 102 696 z "},"Å":{"ha":882,"x_min":102,"x_max":862,"o":"m 102 696 l 179 696 l 179 618 l 256 618 l 256 541 l 334 541 l 334 464 l 411 464 l 411 387 l 488 387 l 488 696 l 566 696 l 566 618 l 643 618 l 643 541 l 720 541 l 720 464 l 798 464 l 798 387 l 862 387 l 862 309 l 798 309 l 798 232 l 720 232 l 720 155 l 643 155 l 643 77 l 566 77 l 566 0 l 488 0 l 488 309 l 411 309 l 411 232 l 334 232 l 334 155 l 256 155 l 256 77 l 179 77 l 179 0 l 102 0 l 102 696 z "},"Æ":{"ha":882,"x_min":102,"x_max":720,"o":"m 102 696 l 179 696 l 179 618 l 256 618 l 256 541 l 334 541 l 334 464 l 411 464 l 411 387 l 488 387 l 488 309 l 411 309 l 411 232 l 334 232 l 334 155 l 256 155 l 256 77 l 179 77 l 179 0 l 102 0 l 102 696 m 566 696 l 720 696 l 720 0 l 566 0 l 566 696 z "},"Ç":{"ha":882,"x_min":102,"x_max":720,"o":"m 256 696 l 566 696 l 566 618 l 643 618 l 643 541 l 720 541 l 720 155 l 643 155 l 643 77 l 566 77 l 566 0 l 256 0 l 256 77 l 179 77 l 179 155 l 102 155 l 102 541 l 179 541 l 179 618 l 256 618 l 256 696 z "},"È":{"ha":781,"x_min":0,"x_max":0,"o":""},"É":{"ha":781,"x_min":0,"x_max":0,"o":""},"Ê":{"ha":781,"x_min":0,"x_max":0,"o":""},"Ë":{"ha":781,"x_min":0,"x_max":0,"o":""},"Ì":{"ha":446,"x_min":0,"x_max":0,"o":""},"Í":{"ha":446,"x_min":0,"x_max":0,"o":""},"Î":{"ha":446,"x_min":0,"x_max":0,"o":""},"Ï":{"ha":446,"x_min":0,"x_max":0,"o":""},"Ð":{"ha":1029,"x_min":0,"x_max":0,"o":""},"Ñ":{"ha":1054,"x_min":0,"x_max":0,"o":""},"Ò":{"ha":1095,"x_min":0,"x_max":0,"o":""},"Ó":{"ha":1095,"x_min":0,"x_max":0,"o":""},"Ô":{"ha":1095,"x_min":0,"x_max":0,"o":""},"Õ":{"ha":1095,"x_min":0,"x_max":0,"o":""},"Ö":{"ha":1095,"x_min":0,"x_max":0,"o":""},"×":{"ha":688,"x_min":0,"x_max":0,"o":""},"Ø":{"ha":1095,"x_min":0,"x_max":0,"o":""},"Ù":{"ha":1018,"x_min":0,"x_max":0,"o":""},"Ú":{"ha":1018,"x_min":0,"x_max":0,"o":""},"Û":{"ha":1018,"x_min":0,"x_max":0,"o":""},"Ü":{"ha":1018,"x_min":0,"x_max":0,"o":""},"Ý":{"ha":836,"x_min":0,"x_max":0,"o":""},"Þ":{"ha":760,"x_min":0,"x_max":0,"o":""},"ß":{"ha":848,"x_min":0,"x_max":0,"o":""},"à":{"ha":625,"x_min":0,"x_max":0,"o":""},"á":{"ha":625,"x_min":0,"x_max":0,"o":""},"â":{"ha":625,"x_min":0,"x_max":0,"o":""},"ã":{"ha":625,"x_min":0,"x_max":0,"o":""},"ä":{"ha":625,"x_min":0,"x_max":0,"o":""},"å":{"ha":625,"x_min":0,"x_max":0,"o":""},"æ":{"ha":986,"x_min":0,"x_max":0,"o":""},"ç":{"ha":614,"x_min":0,"x_max":0,"o":""},"è":{"ha":616,"x_min":0,"x_max":0,"o":""},"é":{"ha":616,"x_min":0,"x_max":0,"o":""},"ê":{"ha":616,"x_min":0,"x_max":0,"o":""},"ë":{"ha":616,"x_min":0,"x_max":0,"o":""},"ì":{"ha":349,"x_min":0,"x_max":0,"o":""},"í":{"ha":349,"x_min":0,"x_max":0,"o":""},"î":{"ha":349,"x_min":0,"x_max":0,"o":""},"ï":{"ha":349,"x_min":0,"x_max":0,"o":""},"ð":{"ha":772,"x_min":0,"x_max":0,"o":""},"ñ":{"ha":751,"x_min":0,"x_max":0,"o":""},"ò":{"ha":685,"x_min":0,"x_max":0,"o":""},"ó":{"ha":685,"x_min":0,"x_max":0,"o":""},"ô":{"ha":685,"x_min":0,"x_max":0,"o":""},"õ":{"ha":685,"x_min":0,"x_max":0,"o":""},"ö":{"ha":685,"x_min":0,"x_max":0,"o":""},"÷":{"ha":688,"x_min":0,"x_max":0,"o":""},"ø":{"ha":685,"x_min":0,"x_max":0,"o":""},"ù":{"ha":718,"x_min":0,"x_max":0,"o":""},"ú":{"ha":718,"x_min":0,"x_max":0,"o":""},"û":{"ha":718,"x_min":0,"x_max":0,"o":""},"ü":{"ha":718,"x_min":0,"x_max":0,"o":""},"ý":{"ha":589,"x_min":0,"x_max":0,"o":""},"þ":{"ha":685,"x_min":0,"x_max":0,"o":""},"ÿ":{"ha":589,"x_min":0,"x_max":0,"o":""},"ı":{"ha":349,"x_min":0,"x_max":0,"o":""},"ˆ":{"ha":509,"x_min":68,"x_max":454,"o":"m 222 1016 l 300 1016 l 300 939 l 377 939 l 377 861 l 454 861 l 454 707 l 377 707 l 377 784 l 300 784 l 300 861 l 222 861 l 222 784 l 145 784 l 145 707 l 68 707 l 68 861 l 145 861 l 145 939 l 222 939 l 222 1016 z "},"ˇ":{"ha":694,"x_min":0,"x_max":0,"o":""},"ˉ":{"ha":694,"x_min":0,"x_max":0,"o":""},"˘":{"ha":694,"x_min":0,"x_max":0,"o":""},"˙":{"ha":694,"x_min":0,"x_max":0,"o":""},"˚":{"ha":694,"x_min":0,"x_max":0,"o":""},"˛":{"ha":694,"x_min":0,"x_max":0,"o":""},"˜":{"ha":814,"x_min":136,"x_max":677,"o":"m 445 687 l 600 687 l 600 610 l 677 610 l 677 455 l 600 455 l 600 532 l 445 532 l 445 455 l 368 455 l 368 378 l 213 378 l 213 455 l 136 455 l 136 610 l 213 610 l 213 532 l 368 532 l 368 610 l 445 610 l 445 687 z "},"˝":{"ha":814,"x_min":68,"x_max":609,"o":"m 68 1015 l 300 1015 l 300 861 l 222 861 l 222 783 l 68 783 l 68 1015 m 377 1015 l 609 1015 l 609 861 l 532 861 l 532 783 l 377 783 l 377 1015 z "},"–":{"ha":814,"x_min":68,"x_max":609,"o":"m 68 546 l 609 546 l 609 469 l 68 469 l 68 546 z "},"—":{"ha":814,"x_min":68,"x_max":609,"o":"m 68 546 l 609 546 l 609 469 l 68 469 l 68 546 z "},"‘":{"ha":509,"x_min":68,"x_max":300,"o":"m 68 1015 l 300 1015 l 300 861 l 222 861 l 222 783 l 68 783 l 68 1015 z "},"’":{"ha":509,"x_min":68,"x_max":300,"o":"m 68 1015 l 300 1015 l 300 861 l 222 861 l 222 783 l 68 783 l 68 1015 z "},"‚":{"ha":441,"x_min":68,"x_max":377,"o":"m 222 232 l 377 232 l 377 77 l 300 77 l 300 0 l 68 0 l 68 77 l 145 77 l 145 155 l 222 155 l 222 232 z "},"“":{"ha":814,"x_min":68,"x_max":609,"o":"m 68 1015 l 300 1015 l 300 861 l 222 861 l 222 783 l 68 783 l 68 1015 m 377 1015 l 609 1015 l 609 861 l 532 861 l 532 783 l 377 783 l 377 1015 z "},"”":{"ha":814,"x_min":68,"x_max":609,"o":"m 68 1015 l 300 1015 l 300 861 l 222 861 l 222 783 l 68 783 l 68 1015 m 377 1015 l 609 1015 l 609 861 l 532 861 l 532 783 l 377 783 l 377 1015 z "},"„":{"ha":617,"x_min":0,"x_max":0,"o":""},"†":{"ha":688,"x_min":0,"x_max":0,"o":""},"‡":{"ha":688,"x_min":0,"x_max":0,"o":""},"•":{"ha":694,"x_min":0,"x_max":0,"o":""},"…":{"ha":1389,"x_min":0,"x_max":0,"o":""},"‹":{"ha":688,"x_min":59,"x_max":600,"o":"m 368 880 l 600 880 l 600 802 l 523 802 l 523 725 l 446 725 l 446 648 l 368 648 l 368 570 l 291 570 l 291 493 l 368 493 l 368 416 l 446 416 l 446 338 l 523 338 l 523 261 l 600 261 l 600 184 l 368 184 l 368 261 l 291 261 l 291 338 l 214 338 l 214 416 l 136 416 l 136 493 l 59 493 l 59 570 l 136 570 l 136 648 l 214 648 l 214 725 l 291 725 l 291 802 l 368 802 l 368 880 z "},"›":{"ha":688,"x_min":59,"x_max":600,"o":"m 59 882 l 291 882 l 291 804 l 368 804 l 368 727 l 446 727 l 446 650 l 523 650 l 523 572 l 600 572 l 600 495 l 523 495 l 523 418 l 446 418 l 446 340 l 368 340 l 368 263 l 291 263 l 291 186 l 59 186 l 59 263 l 136 263 l 136 340 l 214 340 l 214 418 l 291 418 l 291 495 l 368 495 l 368 572 l 291 572 l 291 650 l 214 650 l 214 727 l 136 727 l 136 804 l 59 804 l 59 882 z "},"⁄":{"ha":932,"x_min":68,"x_max":764,"o":"m 609 1082 l 764 1082 l 764 1005 l 686 1005 l 686 850 l 609 850 l 609 696 l 532 696 l 532 541 l 454 541 l 454 387 l 377 387 l 377 232 l 300 232 l 300 77 l 222 77 l 222 0 l 68 0 l 68 77 l 145 77 l 145 232 l 222 232 l 222 387 l 300 387 l 300 541 l 377 541 l 377 696 l 454 696 l 454 850 l 532 850 l 532 1005 l 609 1005 l 609 1082 z "},"₣":{"ha":688,"x_min":0,"x_max":0,"o":""},"₤":{"ha":688,"x_min":0,"x_max":0,"o":""},"₧":{"ha":1375,"x_min":0,"x_max":0,"o":""},"€":{"ha":688,"x_min":0,"x_max":0,"o":""},"№":{"ha":1540,"x_min":0,"x_max":0,"o":""},"™":{"ha":1015,"x_min":0,"x_max":0,"o":""},"∂":{"ha":688,"x_min":0,"x_max":0,"o":""},"∆":{"ha":733,"x_min":0,"x_max":0,"o":""},"∏":{"ha":1027,"x_min":0,"x_max":0,"o":""},"∑":{"ha":818,"x_min":0,"x_max":0,"o":""},"−":{"ha":688,"x_min":0,"x_max":0,"o":""},"√":{"ha":688,"x_min":0,"x_max":0,"o":""},"∞":{"ha":688,"x_min":0,"x_max":0,"o":""},"∫":{"ha":451,"x_min":0,"x_max":0,"o":""},"≈":{"ha":688,"x_min":0,"x_max":0,"o":""},"≤":{"ha":688,"x_min":0,"x_max":0,"o":""},"≥":{"ha":688,"x_min":0,"x_max":0,"o":""},"":{"ha":728,"x_min":0,"x_max":0,"o":""},"":{"ha":733,"x_min":0,"x_max":0,"o":""}}}
